<?xml version="1.0" encoding="UTF-8" standalone="no"?>
<svg width="16.5px" height="17px" viewBox="0 0 16.5 17" version="1.1" xmlns="http://www.w3.org/2000/svg" xmlns:xlink="http://www.w3.org/1999/xlink" xmlns:sketch="http://www.bohemiancoding.com/sketch/ns">
    <title>Untitled 4</title>
    <description>Created with Sketch (http://www.bohemiancoding.com/sketch)</description>
    <defs></defs>
    <g id="Page-1" stroke="none" stroke-width="1" fill="none" fill-rule="evenodd" sketch:type="MSPage">
        <path d="M14.5710678,9 L7.6466922,15.9243756 C7.45129442,16.1197734 7.45689504,16.4421764 7.64644661,16.631728 C7.84170876,16.8269901 8.16192785,16.8233535 8.35379898,16.6314824 L16.1314824,8.85379898 C16.2292222,8.75605916 16.2766703,8.62654142 16.2759603,8.49776868 L16.2767808,8.49876995 C16.2763366,8.37026837 16.2274589,8.24217751 16.1314824,8.14620102 L8.35379898,0.368517606 C8.1584012,0.173119825 7.83599818,0.178720443 7.64644661,0.368272016 C7.45118446,0.563534162 7.45482107,0.883753262 7.6466922,1.07562439 L14.5710678,8 L0.496393204,8 C0.222242807,8 0,8.23193359 0,8.5 C0,8.77614237 0.22618103,9 0.496393204,9 L14.5710678,9 Z" id="Rectangle-3" fill="#C49B61" sketch:type="MSShapeGroup"></path>
    </g>
</svg>