<?xml version="1.0" encoding="UTF-8" standalone="no"?>
<svg width="53px" height="53px" viewBox="0 0 53 53" version="1.1" xmlns="http://www.w3.org/2000/svg" xmlns:xlink="http://www.w3.org/1999/xlink" xmlns:sketch="http://www.bohemiancoding.com/sketch/ns">
    <!-- Generator: Sketch 3.0.3 (7892) - http://www.bohemiancoding.com/sketch -->
    <title>check-seal-icon</title>
    <desc>Created with Sketch.</desc>
    <defs></defs>
    <g id="Page-1-Copy" stroke="none" stroke-width="1" fill="none" fill-rule="evenodd" sketch:type="MSPage">
        <g id="check-seal-icon" sketch:type="MSLayerGroup">
            <path d="M21.664,52.41616 C21.109,52.41616 20.503,52.32334 19.812,52.13158 C17.669,51.53896 16.935,50.44348 16.287,49.47652 C15.829,48.79414 15.435,48.20458 14.435,47.61808 C13.435,47.02954 12.736,46.97752 11.928,46.9153 C10.785,46.8286 9.49,46.73068 7.91,45.14458 C6.334,43.56256 6.22,42.24574 6.118,41.08396 C6.047,40.26388 5.985,39.55498 5.398,38.54926 C4.812,37.54762 4.227,37.15594 3.551,36.70306 C2.588,36.05842 1.496,35.32606 0.898,33.14224 C0.308,30.98494 0.883,29.80072 1.39,28.75522 C1.74,28.03204 2.044,27.40678 2.044,26.27866 C2.044,25.15258 1.74,24.5263 1.388,23.80312 C0.879,22.75558 0.302,21.5683 0.899,19.40998 C1.498,17.24758 2.598,16.5397 3.568,15.91546 C4.24,15.484 4.821,15.11068 5.4,14.14474 C5.984,13.1737 6.048,12.47806 6.122,11.6743 C6.229,10.5217 6.349,9.21508 7.932,7.67692 C9.527,6.12856 10.818,6.06022 11.957,6.00106 C12.758,5.95822 13.449,5.92252 14.445,5.36356 C15.445,4.80154 15.846,4.22728 16.31,3.56224 C16.967,2.61976 17.711,1.55284 19.833,0.99184 C20.411,0.83884 20.937,0.76438 21.44,0.76438 C22.595,0.76438 23.391,1.16218 24.094,1.51204 C24.802,1.86496 25.413,2.16994 26.528,2.16994 C27.644,2.16994 28.255,1.86496 28.963,1.51102 C29.665,1.16116 30.462,0.76438 31.616,0.76438 C32.119,0.76438 32.646,0.83884 33.225,0.99184 C35.339,1.55284 36.074,2.62384 36.724,3.56836 C37.18,4.23136 37.574,4.8046 38.56,5.36356 C39.545,5.9215 40.231,5.95924 41.027,6.00208 C42.163,6.06328 43.45,6.13264 45.029,7.68508 C46.601,9.22834 46.71,10.53394 46.807,11.68552 C46.873,12.48724 46.932,13.1788 47.504,14.14882 C48.074,15.11374 48.649,15.49012 49.315,15.92362 C50.277,16.55194 51.367,17.26288 51.954,19.41712 C52.542,21.5734 51.968,22.7566 51.462,23.80108 C51.11,24.52426 50.808,25.14952 50.808,26.27866 C50.808,27.40882 51.11,28.03306 51.46,28.75624 C51.964,29.79868 52.536,30.97984 51.956,33.13408 C51.37,35.31178 50.288,36.0472 49.333,36.69592 C48.662,37.15084 48.084,37.54456 47.508,38.54518 C46.93,39.54886 46.875,40.2547 46.81,41.07274 C46.719,42.2335 46.615,43.5493 45.052,45.13642 C43.487,46.72558 42.196,46.82554 41.057,46.91428 C40.254,46.9765 39.561,47.02954 38.572,47.61604 C37.586,48.2005 37.196,48.78904 36.746,49.4704 C36.106,50.44042 35.38,51.53896 33.245,52.13158 C32.721,52.27744 32.234,52.34782 31.76,52.34782 C30.567,52.34782 29.713,51.88474 29.026,51.51244 C28.265,51.09934 27.688,50.79538 26.62,50.95246 C25.495,51.11974 24.834,51.43186 24.195,51.73276 C23.482,52.06834 22.745,52.41616 21.664,52.41616 L21.664,52.41616 Z M21.44,3.31438 C21.151,3.31438 20.831,3.36232 20.46,3.46024 C19.22,3.78766 18.892,4.2589 18.348,5.04022 C17.814,5.8042 17.151,6.75484 15.65,7.59736 C14.152,8.43886 13.007,8.49904 12.086,8.54698 C11.115,8.599 10.58,8.62654 9.655,9.52414 C8.75,10.40338 8.7,10.9399 8.611,11.91298 C8.525,12.8422 8.419,14.00092 7.533,15.47584 C6.648,16.94974 5.68,17.57296 4.901,18.07378 C4.09,18.595 3.644,18.88264 3.306,20.10256 C2.97,21.31636 3.203,21.79678 3.628,22.6699 C4.036,23.50936 4.544,24.55486 4.544,26.27866 C4.544,28.00348 4.037,29.04796 3.63,29.8864 C3.207,30.75952 2.974,31.23994 3.307,32.45578 C3.652,33.72058 4.103,34.0225 4.924,34.57228 C5.699,35.09146 6.665,35.73814 7.545,37.24366 C8.425,38.74918 8.527,39.91912 8.608,40.85854 C8.692,41.82142 8.743,42.40282 9.664,43.32694 C10.591,44.25718 11.164,44.30104 12.114,44.37346 C13.038,44.44282 14.188,44.53054 15.683,45.40774 C17.176,46.28494 17.827,47.257 18.351,48.03832 C18.889,48.84004 19.213,49.32352 20.467,49.67032 C20.941,49.8019 21.333,49.86616 21.664,49.86616 C22.195,49.86616 22.554,49.69684 23.146,49.41736 C23.872,49.07566 24.775,48.65032 26.26,48.43 C28.172,48.14338 29.308,48.77578 30.2,49.2613 C31.028,49.7101 31.581,49.95286 32.589,49.67134 C33.826,49.3276 34.127,48.87268 34.673,48.04648 C35.19,47.26312 35.833,46.29004 37.316,45.4108 C38.8,44.53156 39.946,44.44282 40.867,44.37142 C41.809,44.29798 42.377,44.25412 43.288,43.32898 C44.197,42.40588 44.24,41.86018 44.318,40.86772 C44.392,39.93034 44.484,38.76244 45.352,37.25386 C46.219,35.74732 47.177,35.09656 47.947,34.5733 C48.76,34.02148 49.207,33.71752 49.546,32.45884 C49.874,31.23892 49.641,30.7585 49.219,29.88538 C48.813,29.04796 48.308,28.0045 48.308,26.27866 C48.308,24.55384 48.813,23.50936 49.221,22.67092 C49.644,21.7978 49.877,21.31636 49.546,20.0995 C49.215,18.8857 48.772,18.59602 47.969,18.07276 C47.196,17.56888 46.234,16.94056 45.363,15.46462 C44.49,13.98664 44.393,12.83098 44.315,11.90176 C44.234,10.93378 44.19,10.40032 43.295,9.52108 C42.387,8.62858 41.856,8.60104 40.894,8.548 C39.977,8.49904 38.836,8.43682 37.347,7.59328 C35.857,6.74974 35.203,5.79706 34.677,5.03206 C34.124,4.2283 33.819,3.7846 32.596,3.46024 C31.481,3.16342 30.944,3.36028 30.062,3.80296 C29.242,4.21096 28.222,4.71994 26.528,4.71994 C24.835,4.71994 23.815,4.21096 22.996,3.80296 C22.406,3.5092 22.016,3.31438 21.44,3.31438 L21.44,3.31438 Z" id="Fill-1" fill="#C49B61" sketch:type="MSShapeGroup"></path>
            <path d="M20.223,38.17492 C19.73,38.10862 19.301,37.79854 19.077,37.34566 L14.041,27.13648 C13.669,26.38168 13.967,25.46164 14.707,25.0822 C15.446,24.70174 16.348,25.00672 16.721,25.7605 L20.764,33.9562 L36.937,15.38302 C37.485,14.75164 38.433,14.69248 39.054,15.25552 C39.673,15.81652 39.729,16.78348 39.179,17.41486 L21.538,37.6741 C21.252,38.00254 20.843,38.18716 20.417,38.18716 C20.352,38.18716 20.287,38.18308 20.223,38.17492 Z" id="Fill-2" fill="#CDA970" sketch:type="MSShapeGroup"></path>
        </g>
    </g>
</svg>