<?xml version="1.0" encoding="UTF-8" standalone="no"?>
<svg width="15px" height="13px" viewBox="0 0 15 13" version="1.1" xmlns="http://www.w3.org/2000/svg" xmlns:xlink="http://www.w3.org/1999/xlink" xmlns:sketch="http://www.bohemiancoding.com/sketch/ns">
    <title>Untitled 3</title>
    <description>Created with Sketch (http://www.bohemiancoding.com/sketch)</description>
    <defs></defs>
    <g id="Page-1" stroke="none" stroke-width="1" fill="none" fill-rule="evenodd" sketch:type="MSPage">
        <path d="M12.8513992,0.231337514 L3.71863918,10.0161375 L1.37559918,5.65233751 C1.17287918,5.27463751 0.722359184,5.14443751 0.369559184,5.36163751 C0.0164791835,5.57913751 -0.104480816,6.06153751 0.0982391835,6.43953751 L2.92091918,11.6961375 C2.95255918,11.7552375 2.99119918,11.8068375 3.03375918,11.8533375 C3.03599918,11.8557375 3.03627918,11.8584375 3.03851918,11.8605375 C3.03879918,11.8611375 3.03963918,11.8614375 3.03991918,11.8617375 C3.10291918,11.9289375 3.17739918,11.9772375 3.25579918,12.0153375 C3.27539918,12.0249375 3.29415918,12.0336375 3.31431918,12.0408375 C3.39271918,12.0708375 3.47419918,12.0915375 3.55791918,12.0915375 C3.55819918,12.0915375 3.55903918,12.0921375 3.55931918,12.0921375 L3.55959918,12.0921375 L3.55987918,12.0921375 C3.64191918,12.0921375 3.72311918,12.0714375 3.80319918,12.0411375 C3.82447918,12.0330375 3.84407918,12.0240375 3.86479918,12.0141375 C3.88551918,12.0042375 3.90679918,11.9991375 3.92667918,11.9868375 C3.95579918,11.9685375 3.97343918,11.9397375 3.99947918,11.9181375 C4.02579918,11.8971375 4.05659918,11.8863375 4.08039918,11.8608375 L13.8932792,1.34733751 C14.1811192,1.03893751 14.1811192,0.539437514 13.8932792,0.231037514 C13.6057192,-0.0770624863 13.1392392,-0.0770624863 12.8513992,0.231337514 L12.8513992,0.231337514 Z" id="Shape" fill="#42AD15" sketch:type="MSShapeGroup"></path>
    </g>
</svg>