<?xml version="1.0" encoding="UTF-8" standalone="no"?>
<svg width="50px" height="50px" viewBox="0 0 50 50" version="1.1" xmlns="http://www.w3.org/2000/svg" xmlns:xlink="http://www.w3.org/1999/xlink" xmlns:sketch="http://www.bohemiancoding.com/sketch/ns">
    <!-- Generator: Sketch 3.0.2 (7799) - http://www.bohemiancoding.com/sketch -->
    <title>icon</title>
    <description>Created with Sketch.</description>
    <defs></defs>
    <g id="Page-1" stroke="none" stroke-width="1" fill="none" fill-rule="evenodd" sketch:type="MSPage">
        <g id="icon" sketch:type="MSLayerGroup" fill="#CDA970">
            <path d="M25,0 C11.1944444,0 0,11.1944444 0,25 C0,38.8055556 11.1944444,50 25,50 C38.8055556,50 50,38.8055556 50,25 C50,11.1944444 38.8055556,0 25,0 L25,0 Z M25,47.5 C12.574375,47.5 2.5,37.425625 2.5,25 C2.5,12.574375 12.574375,2.5 25,2.5 C37.425625,2.5 47.5,12.574375 47.5,25 C47.5,37.425625 37.425625,47.5 25,47.5 L25,47.5 Z" id="Shape" sketch:type="MSShapeGroup"></path>
            <path d="M26.3888889,5.55555556 L26.3888889,11.1111111 C26.3888889,11.8777778 25.7666667,12.5 25,12.5 C24.2333333,12.5 23.6111111,11.8777778 23.6111111,11.1111111 L23.6111111,5.55555556 C23.6111111,4.78888889 24.2333333,4.16666667 25,4.16666667 C25.7666667,4.16666667 26.3888889,4.78888889 26.3888889,5.55555556 L26.3888889,5.55555556 Z" id="Shape" sketch:type="MSShapeGroup"></path>
            <path d="M26.3888889,41.3888889 L26.3888889,44.1666667 C26.3888889,44.9333333 25.7666667,45.5555556 25,45.5555556 C24.2333333,45.5555556 23.6111111,44.9333333 23.6111111,44.1666667 L23.6111111,41.3888889 C23.6111111,40.6222222 24.2333333,40 25,40 C25.7666667,40 26.3888889,40.6222222 26.3888889,41.3888889 L26.3888889,41.3888889 Z" id="Shape" sketch:type="MSShapeGroup"></path>
            <path d="M44.1666667,26.3888889 L41.3888889,26.3888889 C40.6222222,26.3888889 40,25.7666667 40,25 C40,24.2333333 40.6222222,23.6111111 41.3888889,23.6111111 L44.1666667,23.6111111 C44.9333333,23.6111111 45.5555556,24.2333333 45.5555556,25 C45.5555556,25.7666667 44.9333333,26.3888889 44.1666667,26.3888889 L44.1666667,26.3888889 Z" id="Shape" sketch:type="MSShapeGroup"></path>
            <path d="M8.05555556,26.3888889 L5.27777778,26.3888889 C4.51111111,26.3888889 3.88888889,25.7666667 3.88888889,25 C3.88888889,24.2333333 4.51111111,23.6111111 5.27777778,23.6111111 L8.05555556,23.6111111 C8.82222222,23.6111111 9.44444444,24.2333333 9.44444444,25 C9.44444444,25.7666667 8.82222222,26.3888889 8.05555556,26.3888889 L8.05555556,26.3888889 Z" id="Shape" sketch:type="MSShapeGroup"></path>
            <circle id="Oval" sketch:type="MSShapeGroup" cx="39.1666667" cy="16.9444444" r="1.38888889"></circle>
            <circle id="Oval" sketch:type="MSShapeGroup" cx="10.2777778" cy="33.6111111" r="1.38888889"></circle>
            <circle id="Oval" sketch:type="MSShapeGroup" cx="33.0555556" cy="10.8333333" r="1.38888889"></circle>
            <circle id="Oval" sketch:type="MSShapeGroup" cx="16.3888889" cy="39.1666667" r="1.38888889"></circle>
            <circle id="Oval" sketch:type="MSShapeGroup" cx="16.3888889" cy="10.8333333" r="1.38888889"></circle>
            <circle id="Oval" sketch:type="MSShapeGroup" cx="33.0555556" cy="39.1666667" r="1.38888889"></circle>
            <circle id="Oval" sketch:type="MSShapeGroup" cx="10.2777778" cy="16.9444444" r="1.38888889"></circle>
            <circle id="Oval" sketch:type="MSShapeGroup" cx="39.1666667" cy="33.6111111" r="1.38888889"></circle>
            <path d="M30.7277778,24.95 L25.3888889,26.3333333 C24.8522222,26.4905556 24.1105556,26.2833333 23.8333333,25.7555556 L17.7944444,16.4277778 C17.3777778,15.7833333 17.5666667,14.9222222 18.2055556,14.5055556 C18.85,14.0888889 19.7111111,14.2722222 20.1277778,14.9166667 L25.6222222,23.4055556 L30.0277778,22.2611111 C30.7722222,22.0722222 31.5333333,22.5166667 31.7222222,23.2555556 C31.9166667,24 31.4666667,24.7611111 30.7277778,24.95 C30.7277778,24.95 31.4666667,24.7611111 30.7277778,24.95 L30.7277778,24.95 Z" id="Shape" sketch:type="MSShapeGroup"></path>
        </g>
    </g>
</svg>