<?xml version="1.0" encoding="UTF-8" standalone="no"?>
<svg width="22px" height="22px" viewBox="0 0 22 22" version="1.1" xmlns="http://www.w3.org/2000/svg" xmlns:xlink="http://www.w3.org/1999/xlink" xmlns:sketch="http://www.bohemiancoding.com/sketch/ns">
    <title>Untitled 5</title>
    <description>Created with Sketch (http://www.bohemiancoding.com/sketch)</description>
    <defs></defs>
    <g id="Page-1" stroke="none" stroke-width="1" fill="none" fill-rule="evenodd" sketch:type="MSPage">
        <path d="M20.66548,17.9382048 C20.20458,16.2000689 20.74358,14.2080505 20.74358,14.2080505 C21.09404,13.1363005 21.28852,11.988698 21.28852,10.7942455 C21.28852,4.8324684 16.52222,0 10.64426,0 C4.7663,0.000223095351 0,4.8326915 0,10.7944686 C0,15.4080804 2.85582,19.3434824 6.87104,20.8879715 C6.86906,20.8881946 6.89414,20.898457 6.9399,20.9156354 C7.46614,21.113744 8.01218,21.270357 8.57406,21.382797 C10.74942,21.8802997 14.94174,22.4447309 20.77856,21.452849 C22.2288,21.2007512 22.2563,20.2374255 21.5435,19.3907786 C21.16554,18.9421339 20.88812,18.582058 20.66548,17.9382048 Z" id="Shape" fill="#477DCA" sketch:type="MSShapeGroup"></path>
    </g>
</svg>
