<?xml version="1.0" encoding="UTF-8" standalone="no"?>
<svg width="42px" height="37px" viewBox="0 0 42 37" version="1.1" xmlns="http://www.w3.org/2000/svg" xmlns:xlink="http://www.w3.org/1999/xlink" xmlns:sketch="http://www.bohemiancoding.com/sketch/ns">
    <!-- Generator: Sketch 3.0.2 (7799) - http://www.bohemiancoding.com/sketch -->
    <title>comment 2</title>
    <description>Created with Sketch.</description>
    <defs></defs>
    <g id="Page-1" stroke="none" stroke-width="1" fill="none" fill-rule="evenodd" sketch:type="MSPage">
        <g id="comment-2" sketch:type="MSLayerGroup" transform="translate(1.000000, 1.000000)">
            <path d="M2,0 C0.816031596,0 0,0.845282982 0,2 L0,26 C0,27.3945487 0.804836967,28.2438718 2,28 L6,28 L10,34 C11.2318811,35.200251 12.3103922,35.1922932 13,34 L18,28 L38,28 C39.1839589,28.2438718 40,27.3985889 40,26 L40,2 C40,0.84932324 39.2009849,0 38,0 L2,0 L2,0 Z" id="review_comment" stroke="#C49B61" stroke-width="2" sketch:type="MSShapeGroup"></path>
            <path d="M7.79310345,7 C7.17441086,7 7,7.19907952 7,7.66666667 L7,8.33333333 C7,8.80127492 7.17190895,9 7.79310345,9 L29.2068966,9 C29.8255891,9 30,8.80092048 30,8.33333333 L30,7.66666667 C30,7.19872504 29.8280909,7 29.2068966,7 L7.79310345,7 L7.79310345,7 Z" id="review_comment-path" fill="#CDA970" sketch:type="MSShapeGroup"></path>
            <path d="M7.79310345,13 C7.17441086,13 7,13.1990795 7,13.6666667 L7,14.3333333 C7,14.801275 7.17190895,15 7.79310345,15 L29.2068966,15 C29.8255891,15 30,14.8009205 30,14.3333333 L30,13.6666667 C30,13.198725 29.8280909,13 29.2068966,13 L7.79310345,13 L7.79310345,13 Z" id="review_comment-path" fill="#CDA970" sketch:type="MSShapeGroup"></path>
            <path d="M7.80952381,19 C7.17693473,19 7,19.1990796 7,19.6666667 L7,20.3333333 C7,20.801275 7.17941547,21 7.80952381,21 L23.1904762,21 C23.8230651,21 24,20.8009204 24,20.3333333 L24,19.6666667 C24,19.198725 23.8205845,19 23.1904762,19 L7.80952381,19 L7.80952381,19 Z" id="review_comment-path" fill="#CDA970" sketch:type="MSShapeGroup"></path>
        </g>
    </g>
</svg>