<?xml version="1.0" encoding="utf-8"?>
<!-- Generator: Adobe Illustrator 18.0.0, SVG Export Plug-In . SVG Version: 6.00 Build 0)  -->
<!DOCTYPE svg PUBLIC "-//W3C//DTD SVG 1.1//EN" "http://www.w3.org/Graphics/SVG/1.1/DTD/svg11.dtd">
<svg version="1.1" id="Layer_1" xmlns:sketch="http://www.bohemiancoding.com/sketch/ns"
	 xmlns="http://www.w3.org/2000/svg" xmlns:xlink="http://www.w3.org/1999/xlink" x="0px" y="0px" viewBox="0 0 47 46"
	 enable-background="new 0 0 47 46" xml:space="preserve">
<title>Rectangle 15 + Oval 4 + Shape 4</title>
<desc>Created with Sketch.</desc>
<g id="Page-1-Copy" sketch:type="MSPage">
	<g id="Artboard-37" transform="translate(-112.011719, -264.000000)" sketch:type="MSArtboardGroup">
		<g id="Group" transform="translate(18.000000, 242.000000)" sketch:type="MSLayerGroup">
			<g id="Rectangle-15-_x2B_-Oval-4-_x2B_-Shape-4" transform="translate(94.000000, 22.000000)" sketch:type="MSShapeGroup">
				<path id="Rectangle-15" fill="#71BE1D" d="M23,0L23,0c12.7,0,23,10.3,23,23l0,0c0,12.7-10.3,23-23,23l0,0C10.3,46,0,35.7,0,23
					l0,0C0,10.3,10.3,0,23,0z"/>
				<circle id="Oval-4" fill="#FFFFFF" cx="23" cy="23" r="18"/>
				<path id="Shape-4" fill="#5A9817" d="M31.4,15.3L18.3,30L15,23.5c-0.3-0.6-0.9-0.8-1.4-0.4c-0.5,0.3-0.7,1.1-0.4,1.6l4,7.9
					c0,0.1,0.1,0.2,0.2,0.2c0,0,0,0,0,0c0,0,0,0,0,0c0.1,0.1,0.2,0.2,0.3,0.2c0,0,0.1,0,0.1,0c0.1,0,0.2,0.1,0.3,0.1c0,0,0,0,0,0h0
					h0c0.1,0,0.2,0,0.3-0.1c0,0,0.1,0,0.1,0c0,0,0.1,0,0.1,0c0,0,0.1-0.1,0.1-0.1c0,0,0.1,0,0.1-0.1l14-15.8c0.4-0.5,0.4-1.2,0-1.7
					C32.4,14.9,31.8,14.9,31.4,15.3L31.4,15.3z"/>
			</g>
		</g>
	</g>
</g>
</svg>
