<?xml version="1.0" encoding="UTF-8" standalone="no"?>
<svg width="11px" height="10px" viewBox="0 0 11 10" version="1.1" xmlns="http://www.w3.org/2000/svg" xmlns:xlink="http://www.w3.org/1999/xlink" xmlns:sketch="http://www.bohemiancoding.com/sketch/ns">
    <!-- Generator: Sketch 3.0.2 (7799) - http://www.bohemiancoding.com/sketch -->
    <title>Shape</title>
    <description>Created with Sketch.</description>
    <defs></defs>
    <g id="Page-1" stroke="none" stroke-width="1" fill="none" fill-rule="evenodd" sketch:type="MSPage">
        <path d="M9.17957085,0.173503135 L2.65617085,7.51210314 L0.982570845,4.23925314 C0.837770845,3.95597814 0.515970845,3.85832814 0.263970845,4.02122814 C0.0117708454,4.18435314 -0.0746291546,4.54615314 0.0701708454,4.82965314 L2.08637085,8.77210314 C2.10897085,8.81642814 2.13657085,8.85512814 2.16697085,8.89000314 C2.16857085,8.89180314 2.16877085,8.89382814 2.17037085,8.89540314 C2.17057085,8.89585314 2.17117085,8.89607814 2.17137085,8.89630314 C2.21637085,8.94670314 2.26957085,8.98292814 2.32557085,9.01150314 C2.33957085,9.01870314 2.35297085,9.02522814 2.36737085,9.03062814 C2.42337085,9.05312814 2.48157085,9.06865314 2.54137085,9.06865314 C2.54157085,9.06865314 2.54217085,9.06910314 2.54237085,9.06910314 L2.54257085,9.06910314 L2.54277085,9.06910314 C2.60137085,9.06910314 2.65937085,9.05357814 2.71657085,9.03085314 C2.73177085,9.02477814 2.74577085,9.01802814 2.76057085,9.01060314 C2.77537085,9.00317814 2.79057085,8.99935314 2.80477085,8.99012814 C2.82557085,8.97640314 2.83817085,8.95480314 2.85677085,8.93860314 C2.87557085,8.92285314 2.89757085,8.91475314 2.91457085,8.89562814 L9.92377085,1.01050314 C10.1293708,0.779203135 10.1293708,0.404578135 9.92377085,0.173278135 C9.71837085,-0.0577968647 9.38517085,-0.0577968647 9.17957085,0.173503135 L9.17957085,0.173503135 Z" id="Shape" fill="#5A9817" sketch:type="MSShapeGroup"></path>
    </g>
</svg>