<svg xmlns="http://www.w3.org/2000/svg" xmlns:xlink="http://www.w3.org/1999/xlink" version="1.1" id="Your_Icon" x="0px" y="0px" width="100px" height="100px" viewBox="0 0 100 100" enable-background="new 0 0 100 100" xml:space="preserve">
<g>
	<g>
		<g>
			<path d="M35.526,42.688c-0.395,0-0.789-0.151-1.09-0.452l-3.044-3.044c-0.602-0.602-0.602-1.579,0-2.181     c0.602-0.602,1.578-0.602,2.181,0l1.954,1.954l4.998-4.998c0.602-0.602,1.578-0.602,2.181,0c0.602,0.602,0.602,1.579,0,2.181     l-6.088,6.088C36.315,42.537,35.92,42.688,35.526,42.688z"/>
		</g>
		<g>
			<path d="M67.518,39.644H49.167c-0.851,0-1.542-0.69-1.542-1.542s0.691-1.542,1.542-1.542h18.351c0.851,0,1.542,0.69,1.542,1.542     S68.37,39.644,67.518,39.644z"/>
		</g>
	</g>
	<g>
		<g>
			<path d="M35.526,69.079c-0.395,0-0.789-0.151-1.09-0.452l-3.044-3.044c-0.602-0.602-0.602-1.579,0-2.181     c0.602-0.602,1.578-0.602,2.181,0l1.954,1.954l4.998-4.997c0.602-0.602,1.578-0.602,2.181,0c0.602,0.602,0.602,1.579,0,2.181     l-6.088,6.088C36.315,68.929,35.92,69.079,35.526,69.079z"/>
		</g>
		<g>
			<path d="M67.518,66.035H49.167c-0.851,0-1.542-0.69-1.542-1.542s0.691-1.542,1.542-1.542h18.351c0.851,0,1.542,0.69,1.542,1.542     S68.37,66.035,67.518,66.035z"/>
		</g>
	</g>
	<g>
		<g>
			<path d="M35.526,82.276c-0.395,0-0.789-0.151-1.09-0.452l-3.044-3.044c-0.602-0.602-0.602-1.579,0-2.181     c0.602-0.602,1.578-0.602,2.181,0l1.954,1.954l4.998-4.997c0.602-0.602,1.578-0.602,2.181,0s0.602,1.579,0,2.181l-6.088,6.088     C36.315,82.125,35.92,82.276,35.526,82.276z"/>
		</g>
		<g>
			<path d="M67.518,79.231H49.167c-0.851,0-1.542-0.69-1.542-1.542s0.691-1.542,1.542-1.542h18.351c0.851,0,1.542,0.69,1.542,1.542     S68.37,79.231,67.518,79.231z"/>
		</g>
	</g>
	<g>
		<g>
			<path d="M35.526,55.883c-0.395,0-0.789-0.151-1.09-0.452l-3.044-3.044c-0.602-0.602-0.602-1.578,0-2.181     c0.602-0.602,1.578-0.602,2.181,0l1.954,1.953l4.998-4.997c0.602-0.602,1.578-0.602,2.181,0s0.602,1.579,0,2.181l-6.088,6.088     C36.315,55.733,35.92,55.883,35.526,55.883z"/>
		</g>
		<g>
			<path d="M67.518,52.84H49.167c-0.851,0-1.542-0.69-1.542-1.542s0.691-1.542,1.542-1.542h18.351c0.851,0,1.542,0.69,1.542,1.542     S68.37,52.84,67.518,52.84z"/>
		</g>
	</g>
</g>
<g>
	<g>
		<path d="M78.895,16.268H67.627c-0.216-3.146-2.838-5.624-6.035-5.624h-5.881C55.67,7.529,53.13,5,49.995,5    c-3.125,0-5.675,2.529-5.706,5.644h-5.891c-3.187,0-5.809,2.478-6.025,5.624H21.105c-1.141,0-2.056,0.925-2.056,2.056v74.62    c0,1.141,0.915,2.056,2.056,2.056h57.79c1.141,0,2.056-0.915,2.056-2.056v-74.62C80.951,17.193,80.036,16.268,78.895,16.268z     M36.465,16.7c0-1.069,0.864-1.943,1.933-1.943h6.426c1.974,0,3.578-1.604,3.578-3.567v-0.473c0-0.884,0.72-1.604,1.594-1.604    c0.884,0,1.604,0.72,1.604,1.604v0.473c0,1.964,1.604,3.567,3.567,3.567h6.426c1.08,0,1.943,0.874,1.943,1.943v4.215h-27.07V16.7z     M76.839,90.888H23.161V20.38h9.191v2.591c0,1.141,0.915,2.056,2.056,2.056h31.182c1.141,0,2.056-0.915,2.056-2.056V20.38h9.191    V90.888z"/>
	</g>
	<g>
		<circle cx="50" cy="16.992" r="1.975"/>
	</g>
</g>
</svg>