<?xml version="1.0" encoding="UTF-8" standalone="no"?>
<svg width="12px" height="12px" viewBox="0 0 12 12" version="1.1" xmlns="http://www.w3.org/2000/svg" xmlns:xlink="http://www.w3.org/1999/xlink" xmlns:sketch="http://www.bohemiancoding.com/sketch/ns">
    <title>Slice 1</title>
    <description>Created with Sketch (http://www.bohemiancoding.com/sketch)</description>
    <defs></defs>
    <g id="Page-1" stroke="none" stroke-width="1" fill="none" fill-rule="evenodd" sketch:type="MSPage">
        <path d="M10.7354333,0.344254831 L5.84609999,5.0589215 L1.12743332,0.166921497 C0.91809999,-0.050411836 0.572766656,-0.0557451694 0.355433323,0.152254831 C0.136766656,0.360254831 0.131433323,0.708254831 0.340766656,0.924254831 L5.05676666,5.81758816 L0.167433323,10.5309215 C-0.0499000104,10.7415882 -0.0565666771,11.0855882 0.152766656,11.3042548 C0.260766656,11.4149215 0.403433323,11.4695882 0.54609999,11.4695882 C0.68209999,11.4695882 0.820766656,11.4202548 0.92609999,11.3175882 L5.81543332,6.6029215 L10.5301,11.4909215 C10.6394333,11.6042548 10.7821,11.6602548 10.9247667,11.6602548 C11.0621,11.6602548 11.1994333,11.6095882 11.3034333,11.5055882 C11.5221,11.2975882 11.5287667,10.9509215 11.3181,10.7322548 L6.60343332,5.8429215 L11.4927667,1.12825483 C11.7101,0.920254831 11.7167667,0.574921497 11.5087667,0.356254831 C11.2981,0.138921497 10.9514333,0.136254831 10.7354333,0.344254831 L10.7354333,0.344254831 Z" id="Shape" fill="#D52120" sketch:type="MSShapeGroup"></path>
    </g>
</svg>